<?xml version="1.0" encoding="UTF-8" standalone="no"?>
<!DOCTYPE svg PUBLIC "-//W3C//DTD SVG 1.1//EN"
 "http://www.w3.org/Graphics/SVG/1.1/DTD/svg11.dtd">
<!-- Generated by graphviz version 13.1.2 (20250808.2320)
 -->
<!-- Title: fifo_mem Pages: 1 -->
<svg width="1693pt" height="636pt"
 viewBox="0.00 0.00 1693.00 636.00" xmlns="http://www.w3.org/2000/svg" xmlns:xlink="http://www.w3.org/1999/xlink">
<g id="graph0" class="graph" transform="scale(1 1) rotate(0) translate(4 631.94)">
<title>fifo_mem</title>
<polygon fill="white" stroke="none" points="-4,4 -4,-631.94 1688.72,-631.94 1688.72,4 -4,4"/>
<text xml:space="preserve" text-anchor="middle" x="842.36" y="-7.2" font-family="Times,serif" font-size="14.00">fifo_mem</text>
<!-- n1 -->
<g id="node1" class="node">
<title>n1</title>
<polygon fill="none" stroke="black" points="58.76,-451.3 58.76,-466.22 42.95,-476.76 20.58,-476.76 4.76,-466.22 4.76,-451.3 20.58,-440.76 42.95,-440.76 58.76,-451.3"/>
<text xml:space="preserve" text-anchor="middle" x="31.76" y="-453.71" font-family="Times,serif" font-size="14.00">clk</text>
</g>
<!-- c16 -->
<g id="node16" class="node">
<title>c16</title>
<polygon fill="none" stroke="black" points="99.52,-274.76 99.52,-372.76 307.27,-372.76 307.27,-274.76 99.52,-274.76"/>
<text xml:space="preserve" text-anchor="middle" x="130.02" y="-355.46" font-family="Times,serif" font-size="14.00">clk</text>
<polyline fill="none" stroke="black" points="99.52,-348.26 160.52,-348.26"/>
<text xml:space="preserve" text-anchor="middle" x="130.02" y="-330.96" font-family="Times,serif" font-size="14.00">fifo_full</text>
<polyline fill="none" stroke="black" points="99.52,-323.76 160.52,-323.76"/>
<text xml:space="preserve" text-anchor="middle" x="130.02" y="-306.46" font-family="Times,serif" font-size="14.00">rst_n</text>
<polyline fill="none" stroke="black" points="99.52,-299.26 160.52,-299.26"/>
<text xml:space="preserve" text-anchor="middle" x="130.02" y="-281.96" font-family="Times,serif" font-size="14.00">wr</text>
<polyline fill="none" stroke="black" points="160.52,-274.76 160.52,-372.76"/>
<text xml:space="preserve" text-anchor="middle" x="204.9" y="-326.96" font-family="Times,serif" font-size="14.00">top1</text>
<text xml:space="preserve" text-anchor="middle" x="204.9" y="-310.46" font-family="Times,serif" font-size="14.00">write_pointer</text>
<polyline fill="none" stroke="black" points="249.27,-274.76 249.27,-372.76"/>
<text xml:space="preserve" text-anchor="middle" x="278.27" y="-343.46" font-family="Times,serif" font-size="14.00">fifo_we</text>
<polyline fill="none" stroke="black" points="249.27,-324.26 307.27,-324.26"/>
<text xml:space="preserve" text-anchor="middle" x="278.27" y="-294.46" font-family="Times,serif" font-size="14.00">wptr</text>
</g>
<!-- n1&#45;&gt;c16 -->
<g id="edge1" class="edge">
<title>n1:e&#45;&gt;c16:w</title>
<path fill="none" stroke="black" d="M60.01,-458.76C102.48,-458.76 62.16,-378.76 88.45,-363.14"/>
<polygon fill="black" stroke="black" points="89.13,-366.57 98.05,-360.86 87.51,-359.76 89.13,-366.57"/>
</g>
<!-- c17 -->
<g id="node17" class="node">
<title>c17</title>
<polygon fill="none" stroke="black" points="949.12,-392.76 949.12,-490.76 1163.62,-490.76 1163.62,-392.76 949.12,-392.76"/>
<text xml:space="preserve" text-anchor="middle" x="987.5" y="-473.46" font-family="Times,serif" font-size="14.00">clk</text>
<polyline fill="none" stroke="black" points="949.12,-466.26 1025.87,-466.26"/>
<text xml:space="preserve" text-anchor="middle" x="987.5" y="-448.96" font-family="Times,serif" font-size="14.00">fifo_empty</text>
<polyline fill="none" stroke="black" points="949.12,-441.76 1025.87,-441.76"/>
<text xml:space="preserve" text-anchor="middle" x="987.5" y="-424.46" font-family="Times,serif" font-size="14.00">rd</text>
<polyline fill="none" stroke="black" points="949.12,-417.26 1025.87,-417.26"/>
<text xml:space="preserve" text-anchor="middle" x="987.5" y="-399.96" font-family="Times,serif" font-size="14.00">rst_n</text>
<polyline fill="none" stroke="black" points="1025.87,-392.76 1025.87,-490.76"/>
<text xml:space="preserve" text-anchor="middle" x="1068" y="-444.96" font-family="Times,serif" font-size="14.00">top2</text>
<text xml:space="preserve" text-anchor="middle" x="1068" y="-428.46" font-family="Times,serif" font-size="14.00">read_pointer</text>
<polyline fill="none" stroke="black" points="1110.12,-392.76 1110.12,-490.76"/>
<text xml:space="preserve" text-anchor="middle" x="1136.87" y="-461.46" font-family="Times,serif" font-size="14.00">fifo_rd</text>
<polyline fill="none" stroke="black" points="1110.12,-442.26 1163.62,-442.26"/>
<text xml:space="preserve" text-anchor="middle" x="1136.87" y="-412.46" font-family="Times,serif" font-size="14.00">rptr</text>
</g>
<!-- n1&#45;&gt;c17 -->
<g id="edge2" class="edge">
<title>n1:e&#45;&gt;c17:w</title>
<path fill="none" stroke="black" d="M60.01,-458.76C186.16,-458.76 217.2,-472.58 343.27,-476.76 608.58,-485.56 677.91,-478.71 937.81,-478.51"/>
<polygon fill="black" stroke="black" points="937.61,-482.01 947.61,-478.51 937.61,-475.01 937.61,-482.01"/>
</g>
<!-- c18 -->
<g id="node18" class="node">
<title>c18</title>
<polygon fill="none" stroke="black" points="1338.89,-470.51 1338.89,-593.01 1556.39,-593.01 1556.39,-470.51 1338.89,-470.51"/>
<text xml:space="preserve" text-anchor="middle" x="1367.89" y="-575.71" font-family="Times,serif" font-size="14.00">clk</text>
<polyline fill="none" stroke="black" points="1338.89,-568.51 1396.89,-568.51"/>
<text xml:space="preserve" text-anchor="middle" x="1367.89" y="-551.21" font-family="Times,serif" font-size="14.00">data_in</text>
<polyline fill="none" stroke="black" points="1338.89,-544.01 1396.89,-544.01"/>
<text xml:space="preserve" text-anchor="middle" x="1367.89" y="-526.71" font-family="Times,serif" font-size="14.00">fifo_we</text>
<polyline fill="none" stroke="black" points="1338.89,-519.51 1396.89,-519.51"/>
<text xml:space="preserve" text-anchor="middle" x="1367.89" y="-502.21" font-family="Times,serif" font-size="14.00">rptr</text>
<polyline fill="none" stroke="black" points="1338.89,-495.01 1396.89,-495.01"/>
<text xml:space="preserve" text-anchor="middle" x="1367.89" y="-477.71" font-family="Times,serif" font-size="14.00">wptr</text>
<polyline fill="none" stroke="black" points="1396.89,-470.51 1396.89,-593.01"/>
<text xml:space="preserve" text-anchor="middle" x="1445.39" y="-534.96" font-family="Times,serif" font-size="14.00">top3</text>
<text xml:space="preserve" text-anchor="middle" x="1445.39" y="-518.46" font-family="Times,serif" font-size="14.00">memory_array</text>
<polyline fill="none" stroke="black" points="1493.89,-470.51 1493.89,-593.01"/>
<text xml:space="preserve" text-anchor="middle" x="1525.14" y="-526.71" font-family="Times,serif" font-size="14.00">data_out</text>
</g>
<!-- n1&#45;&gt;c18 -->
<g id="edge3" class="edge">
<title>n1:e&#45;&gt;c18:w</title>
<path fill="none" stroke="black" d="M60.01,-458.76C80.11,-458.76 81.67,-471.53 99.52,-480.76 230.27,-548.37 251.05,-623.76 398.25,-623.76 398.25,-623.76 398.25,-623.76 1057.37,-623.76 1166.82,-623.76 1199.44,-640.5 1302.89,-604.76 1316.66,-600 1319.19,-588.67 1327.98,-583.46"/>
<polygon fill="black" stroke="black" points="1328.55,-586.93 1337.42,-581.12 1326.87,-580.13 1328.55,-586.93"/>
</g>
<!-- c19 -->
<g id="node19" class="node">
<title>c19</title>
<polygon fill="none" stroke="black" points="491.22,-176.76 491.22,-372.76 732.72,-372.76 732.72,-176.76 491.22,-176.76"/>
<text xml:space="preserve" text-anchor="middle" x="520.22" y="-355.46" font-family="Times,serif" font-size="14.00">clk</text>
<polyline fill="none" stroke="black" points="491.22,-348.26 549.22,-348.26"/>
<text xml:space="preserve" text-anchor="middle" x="520.22" y="-330.96" font-family="Times,serif" font-size="14.00">fifo_rd</text>
<polyline fill="none" stroke="black" points="491.22,-323.76 549.22,-323.76"/>
<text xml:space="preserve" text-anchor="middle" x="520.22" y="-306.46" font-family="Times,serif" font-size="14.00">fifo_we</text>
<polyline fill="none" stroke="black" points="491.22,-299.26 549.22,-299.26"/>
<text xml:space="preserve" text-anchor="middle" x="520.22" y="-281.96" font-family="Times,serif" font-size="14.00">rd</text>
<polyline fill="none" stroke="black" points="491.22,-274.76 549.22,-274.76"/>
<text xml:space="preserve" text-anchor="middle" x="520.22" y="-257.46" font-family="Times,serif" font-size="14.00">rptr</text>
<polyline fill="none" stroke="black" points="491.22,-250.26 549.22,-250.26"/>
<text xml:space="preserve" text-anchor="middle" x="520.22" y="-232.96" font-family="Times,serif" font-size="14.00">rst_n</text>
<polyline fill="none" stroke="black" points="491.22,-225.76 549.22,-225.76"/>
<text xml:space="preserve" text-anchor="middle" x="520.22" y="-208.46" font-family="Times,serif" font-size="14.00">wptr</text>
<polyline fill="none" stroke="black" points="491.22,-201.26 549.22,-201.26"/>
<text xml:space="preserve" text-anchor="middle" x="520.22" y="-183.96" font-family="Times,serif" font-size="14.00">wr</text>
<polyline fill="none" stroke="black" points="549.22,-176.76 549.22,-372.76"/>
<text xml:space="preserve" text-anchor="middle" x="592.1" y="-277.96" font-family="Times,serif" font-size="14.00">top4</text>
<text xml:space="preserve" text-anchor="middle" x="592.1" y="-261.46" font-family="Times,serif" font-size="14.00">status_signal</text>
<polyline fill="none" stroke="black" points="634.97,-176.76 634.97,-372.76"/>
<text xml:space="preserve" text-anchor="middle" x="683.85" y="-348.46" font-family="Times,serif" font-size="14.00">fifo_empty</text>
<polyline fill="none" stroke="black" points="634.97,-334.26 732.72,-334.26"/>
<text xml:space="preserve" text-anchor="middle" x="683.85" y="-309.46" font-family="Times,serif" font-size="14.00">fifo_full</text>
<polyline fill="none" stroke="black" points="634.97,-294.76 732.72,-294.76"/>
<text xml:space="preserve" text-anchor="middle" x="683.85" y="-269.96" font-family="Times,serif" font-size="14.00">fifo_overflow</text>
<polyline fill="none" stroke="black" points="634.97,-255.26 732.72,-255.26"/>
<text xml:space="preserve" text-anchor="middle" x="683.85" y="-230.96" font-family="Times,serif" font-size="14.00">fifo_threshold</text>
<polyline fill="none" stroke="black" points="634.97,-216.76 732.72,-216.76"/>
<text xml:space="preserve" text-anchor="middle" x="683.85" y="-191.96" font-family="Times,serif" font-size="14.00">fifo_underflow</text>
</g>
<!-- n1&#45;&gt;c19 -->
<g id="edge4" class="edge">
<title>n1:e&#45;&gt;c19:w</title>
<path fill="none" stroke="black" d="M60.01,-458.76C239.59,-458.76 283.31,-426.65 455.22,-374.76 467.19,-371.15 471.69,-365.26 479.85,-362.31"/>
<polygon fill="black" stroke="black" points="480.4,-365.77 489.73,-360.75 479.3,-358.86 480.4,-365.77"/>
</g>
<!-- n2 -->
<g id="node2" class="node">
<title>n2</title>
<polygon fill="none" stroke="black" points="1292.44,-570.3 1292.44,-585.22 1268.31,-595.76 1234.2,-595.76 1210.08,-585.22 1210.08,-570.3 1234.2,-559.76 1268.31,-559.76 1292.44,-570.3"/>
<text xml:space="preserve" text-anchor="middle" x="1251.26" y="-572.71" font-family="Times,serif" font-size="14.00">data_in</text>
</g>
<!-- n2&#45;&gt;c18 -->
<g id="edge21" class="edge">
<title>n2:e&#45;&gt;c18:w</title>
<path fill="none" stroke="black" stroke-width="3" d="M1293.82,-577.76C1311.51,-577.76 1315.53,-564.11 1327.67,-558.56"/>
<polygon fill="black" stroke="black" stroke-width="3" points="1325.35,-562.61 1334.44,-557.17 1323.94,-555.75 1325.35,-562.61"/>
</g>
<!-- n3 -->
<g id="node3" class="node">
<title>n3</title>
<polygon fill="none" stroke="black" points="1684.72,-524.3 1684.72,-539.22 1657.67,-549.76 1619.43,-549.76 1592.39,-539.22 1592.39,-524.3 1619.43,-513.76 1657.67,-513.76 1684.72,-524.3"/>
<text xml:space="preserve" text-anchor="middle" x="1638.55" y="-526.71" font-family="Times,serif" font-size="14.00">data_out</text>
</g>
<!-- n4 -->
<g id="node4" class="node">
<title>n4</title>
<polygon fill="none" stroke="black" points="897.61,-440.3 897.61,-455.22 864.4,-465.76 817.44,-465.76 784.23,-455.22 784.23,-440.3 817.44,-429.76 864.4,-429.76 897.61,-440.3"/>
<text xml:space="preserve" text-anchor="middle" x="840.92" y="-442.71" font-family="Times,serif" font-size="14.00">fifo_empty</text>
</g>
<!-- n4&#45;&gt;c17 -->
<g id="edge24" class="edge">
<title>n4:e&#45;&gt;c17:w</title>
<path fill="none" stroke="black" d="M898.85,-447.76C916.97,-447.76 923.9,-451.81 937.65,-453.39"/>
<polygon fill="black" stroke="black" points="937.44,-456.88 947.61,-453.93 937.82,-449.89 937.44,-456.88"/>
</g>
<!-- n5 -->
<g id="node5" class="node">
<title>n5</title>
<polygon fill="none" stroke="black" points="885.98,-310.3 885.98,-325.22 859.59,-335.76 822.26,-335.76 795.87,-325.22 795.87,-310.3 822.26,-299.76 859.59,-299.76 885.98,-310.3"/>
<text xml:space="preserve" text-anchor="middle" x="840.92" y="-312.71" font-family="Times,serif" font-size="14.00">fifo_full</text>
</g>
<!-- n5&#45;&gt;c16 -->
<g id="edge26" class="edge">
<title>n5:e&#45;&gt;c16:w</title>
<path fill="none" stroke="black" d="M887.4,-317.76C895.41,-317.76 891.34,-329.45 886.4,-335.76 842.34,-391.98 803.36,-372.2 732.72,-382.76 454.36,-424.37 298.8,-572.02 99.52,-373.26 91.46,-365.22 86.18,-350.63 89.05,-342.29"/>
<polygon fill="black" stroke="black" points="90.86,-345.29 97.26,-336.85 86.99,-339.46 90.86,-345.29"/>
</g>
<!-- n6 -->
<g id="node6" class="node">
<title>n6</title>
<polygon fill="none" stroke="black" points="908.14,-256.3 908.14,-271.22 868.76,-281.76 813.08,-281.76 773.71,-271.22 773.71,-256.3 813.08,-245.76 868.76,-245.76 908.14,-256.3"/>
<text xml:space="preserve" text-anchor="middle" x="840.92" y="-258.71" font-family="Times,serif" font-size="14.00">fifo_overflow</text>
</g>
<!-- n7 -->
<g id="node7" class="node">
<title>n7</title>
<polygon fill="none" stroke="black" points="1251.26,-483.76 1199.62,-465.76 1251.26,-447.76 1302.89,-465.76 1251.26,-483.76"/>
<text xml:space="preserve" text-anchor="middle" x="1251.26" y="-460.71" font-family="Times,serif" font-size="14.00">fifo_rd</text>
</g>
<!-- n7&#45;&gt;c19 -->
<g id="edge29" class="edge">
<title>n7:e&#45;&gt;c19:w</title>
<path fill="none" stroke="black" d="M1305.17,-465.76C1313.19,-465.76 1309.99,-478.25 1304.17,-483.76 1270.42,-515.69 1237.64,-510.48 1199.62,-483.76 1160.98,-456.6 1202.06,-411.22 1163.62,-383.76 1148.43,-372.9 504.5,-386.39 491.22,-373.26 483.13,-365.25 477.86,-350.65 480.74,-342.3"/>
<polygon fill="black" stroke="black" points="482.57,-345.29 488.96,-336.85 478.69,-339.46 482.57,-345.29"/>
</g>
<!-- n8 -->
<g id="node8" class="node">
<title>n8</title>
<polygon fill="none" stroke="black" points="909.25,-164.3 909.25,-179.22 869.22,-189.76 812.62,-189.76 772.6,-179.22 772.6,-164.3 812.62,-153.76 869.22,-153.76 909.25,-164.3"/>
<text xml:space="preserve" text-anchor="middle" x="840.92" y="-166.71" font-family="Times,serif" font-size="14.00">fifo_threshold</text>
</g>
<!-- n9 -->
<g id="node9" class="node">
<title>n9</title>
<polygon fill="none" stroke="black" points="913.12,-110.3 913.12,-125.22 870.83,-135.76 811.02,-135.76 768.72,-125.22 768.72,-110.3 811.02,-99.76 870.83,-99.76 913.12,-110.3"/>
<text xml:space="preserve" text-anchor="middle" x="840.92" y="-112.71" font-family="Times,serif" font-size="14.00">fifo_underflow</text>
</g>
<!-- n10 -->
<g id="node10" class="node">
<title>n10</title>
<polygon fill="none" stroke="black" points="399.25,-365.76 343.27,-347.76 399.25,-329.76 455.22,-347.76 399.25,-365.76"/>
<text xml:space="preserve" text-anchor="middle" x="399.25" y="-342.71" font-family="Times,serif" font-size="14.00">fifo_we</text>
</g>
<!-- n10&#45;&gt;c18 -->
<g id="edge6" class="edge">
<title>n10:e&#45;&gt;c18:w</title>
<path fill="none" stroke="black" d="M455.22,-347.76C491.4,-347.76 462.48,-398.8 491.22,-420.76 790.12,-649.13 955.6,-534.12 1327.54,-531.8"/>
<polygon fill="black" stroke="black" points="1327.39,-535.3 1337.37,-531.76 1327.36,-528.3 1327.39,-535.3"/>
</g>
<!-- n10&#45;&gt;c19 -->
<g id="edge7" class="edge">
<title>n10:e&#45;&gt;c19:w</title>
<path fill="none" stroke="black" d="M455.22,-347.76C473.14,-347.76 471.06,-325.19 480.54,-315.67"/>
<polygon fill="black" stroke="black" points="481.76,-318.95 489.81,-312.06 479.22,-312.42 481.76,-318.95"/>
</g>
<!-- n11 -->
<g id="node11" class="node">
<title>n11</title>
<polygon fill="none" stroke="black" points="426.25,-285.3 426.25,-300.22 410.43,-310.76 388.06,-310.76 372.25,-300.22 372.25,-285.3 388.06,-274.76 410.43,-274.76 426.25,-285.3"/>
<text xml:space="preserve" text-anchor="middle" x="399.25" y="-287.71" font-family="Times,serif" font-size="14.00">rd</text>
</g>
<!-- n11&#45;&gt;c17 -->
<g id="edge8" class="edge">
<title>n11:e&#45;&gt;c17:w</title>
<path fill="none" stroke="black" d="M427.5,-292.76C445.01,-292.76 444.58,-306.85 455.22,-320.76 474.59,-346.06 464.35,-365.64 491.22,-382.76 650,-483.93 727.38,-390 913.12,-420.76 924.8,-422.69 929.78,-426.37 937.78,-428.28"/>
<polygon fill="black" stroke="black" points="937.3,-431.75 947.62,-429.35 938.05,-424.79 937.3,-431.75"/>
</g>
<!-- n11&#45;&gt;c19 -->
<g id="edge9" class="edge">
<title>n11:e&#45;&gt;c19:w</title>
<path fill="none" stroke="black" d="M427.5,-292.76C451.71,-292.76 460.28,-288.59 479.84,-287.35"/>
<polygon fill="black" stroke="black" points="479.82,-290.85 489.71,-287.06 479.61,-283.86 479.82,-290.85"/>
</g>
<!-- n12 -->
<g id="node12" class="node">
<title>n12</title>
<polygon fill="none" stroke="black" points="1251.26,-429.76 1217,-411.76 1251.26,-393.76 1285.52,-411.76 1251.26,-429.76"/>
<text xml:space="preserve" text-anchor="middle" x="1251.26" y="-406.71" font-family="Times,serif" font-size="14.00">rptr</text>
</g>
<!-- n12&#45;&gt;c18 -->
<g id="edge11" class="edge">
<title>n12:e&#45;&gt;c18:w</title>
<path fill="none" stroke="black" stroke-width="3" d="M1287.55,-411.76C1331.22,-411.76 1298.32,-490.19 1327.64,-504.9"/>
<polygon fill="black" stroke="black" stroke-width="3" points="1323.94,-507.7 1334.44,-506.33 1325.38,-500.85 1323.94,-507.7"/>
</g>
<!-- n12&#45;&gt;c19 -->
<g id="edge12" class="edge">
<title>n12:e&#45;&gt;c19:w</title>
<path fill="none" stroke="black" stroke-width="3" d="M1287.55,-411.76C1295.56,-411.76 1292.37,-424.25 1286.55,-429.76 1275.32,-440.38 1230.62,-437.05 1217,-429.76 1179.31,-409.6 1196.23,-377.4 1163.62,-349.76 1070.46,-270.79 1028.25,-277.55 913.12,-236.76 850.57,-214.59 829.64,-225.09 768.72,-198.76 751.4,-191.27 750.86,-181.46 732.72,-176.26 629.55,-146.67 567.56,-100.8 491.22,-176.26 480.31,-187.05 473.94,-235.87 481.68,-254.89"/>
<polygon fill="black" stroke="black" stroke-width="3" points="477.04,-255.44 486.83,-259.49 481.7,-250.22 477.04,-255.44"/>
</g>
<!-- n13 -->
<g id="node13" class="node">
<title>n13</title>
<polygon fill="none" stroke="black" points="63.52,-238.3 63.52,-253.22 44.92,-263.76 18.61,-263.76 0,-253.22 0,-238.3 18.61,-227.76 44.92,-227.76 63.52,-238.3"/>
<text xml:space="preserve" text-anchor="middle" x="31.76" y="-240.71" font-family="Times,serif" font-size="14.00">rst_n</text>
</g>
<!-- n13&#45;&gt;c16 -->
<g id="edge13" class="edge">
<title>n13:e&#45;&gt;c16:w</title>
<path fill="none" stroke="black" d="M63.52,-245.76C92.15,-245.76 73.56,-294.32 88.91,-307.97"/>
<polygon fill="black" stroke="black" points="87.49,-311.19 98.09,-311.03 89.7,-304.55 87.49,-311.19"/>
</g>
<!-- n13&#45;&gt;c17 -->
<g id="edge14" class="edge">
<title>n13:e&#45;&gt;c17:w</title>
<path fill="none" stroke="black" d="M63.52,-245.76C151.57,-245.76 310.2,-33.76 398.25,-33.76 398.25,-33.76 398.25,-33.76 612.97,-33.76 748.76,-33.76 820.71,8.72 913.12,-90.76 958.07,-139.14 888.3,-373.97 937.97,-402.23"/>
<polygon fill="black" stroke="black" points="937.11,-405.62 947.66,-404.64 938.8,-398.83 937.11,-405.62"/>
</g>
<!-- n13&#45;&gt;c19 -->
<g id="edge15" class="edge">
<title>n13:e&#45;&gt;c19:w</title>
<path fill="none" stroke="black" d="M63.52,-245.76C249.84,-245.76 299.14,-238.32 479.97,-238.02"/>
<polygon fill="black" stroke="black" points="479.71,-241.52 489.71,-238.01 479.7,-234.52 479.71,-241.52"/>
</g>
<!-- n14 -->
<g id="node14" class="node">
<title>n14</title>
<polygon fill="none" stroke="black" points="399.25,-217.76 359.92,-199.76 399.25,-181.76 438.57,-199.76 399.25,-217.76"/>
<text xml:space="preserve" text-anchor="middle" x="399.25" y="-194.71" font-family="Times,serif" font-size="14.00">wptr</text>
</g>
<!-- n14&#45;&gt;c18 -->
<g id="edge17" class="edge">
<title>n14:e&#45;&gt;c18:w</title>
<path fill="none" stroke="black" stroke-width="3" d="M440.76,-199.76C467.32,-199.76 466.95,-178.54 491.22,-167.76 638.13,-102.52 679.18,-71.76 839.92,-71.76 839.92,-71.76 839.92,-71.76 1057.37,-71.76 1234.18,-71.76 1216.79,-230.34 1302.89,-384.76 1323.36,-421.49 1298.18,-472.13 1327.82,-481.31"/>
<polygon fill="black" stroke="black" stroke-width="3" points="1324.02,-484.34 1334.39,-482.17 1324.93,-477.4 1324.02,-484.34"/>
</g>
<!-- n14&#45;&gt;c19 -->
<g id="edge18" class="edge">
<title>n14:e&#45;&gt;c19:w</title>
<path fill="none" stroke="black" stroke-width="3" d="M440.76,-199.76C459.64,-199.76 465.81,-208.84 479.92,-212.24"/>
<polygon fill="black" stroke="black" stroke-width="3" points="476.38,-215.36 486.71,-213 477.16,-208.41 476.38,-215.36"/>
</g>
<!-- n15 -->
<g id="node15" class="node">
<title>n15</title>
<polygon fill="none" stroke="black" points="58.76,-165.3 58.76,-180.22 42.95,-190.76 20.58,-190.76 4.76,-180.22 4.76,-165.3 20.58,-154.76 42.95,-154.76 58.76,-165.3"/>
<text xml:space="preserve" text-anchor="middle" x="31.76" y="-167.71" font-family="Times,serif" font-size="14.00">wr</text>
</g>
<!-- n15&#45;&gt;c16 -->
<g id="edge19" class="edge">
<title>n15:e&#45;&gt;c16:w</title>
<path fill="none" stroke="black" d="M60.01,-172.76C109.34,-172.76 56.12,-269.03 88.62,-284.83"/>
<polygon fill="black" stroke="black" points="87.55,-288.18 98.04,-286.71 88.92,-281.32 87.55,-288.18"/>
</g>
<!-- n15&#45;&gt;c19 -->
<g id="edge20" class="edge">
<title>n15:e&#45;&gt;c19:w</title>
<path fill="none" stroke="black" d="M60.01,-172.76C235.66,-172.76 283.51,-135.8 455.22,-172.76 467.82,-175.47 471.86,-182.96 480.07,-186.75"/>
<polygon fill="black" stroke="black" points="479.24,-190.16 489.74,-188.71 480.63,-183.3 479.24,-190.16"/>
</g>
<!-- c16&#45;&gt;n10 -->
<g id="edge5" class="edge">
<title>c16:e&#45;&gt;n10:w</title>
<path fill="none" stroke="black" d="M307.27,-348.51C318.65,-348.51 323.96,-348.13 331.83,-347.91"/>
<polygon fill="black" stroke="black" points="331.81,-351.41 341.76,-347.78 331.71,-344.41 331.81,-351.41"/>
</g>
<!-- c16&#45;&gt;n14 -->
<g id="edge16" class="edge">
<title>c16:e&#45;&gt;n14:w</title>
<path fill="none" stroke="black" stroke-width="3" d="M307.27,-299.51C352.49,-299.51 316.04,-216.88 346.59,-202.03"/>
<polygon fill="black" stroke="black" stroke-width="3" points="344.19,-206.09 353.29,-200.67 342.79,-199.23 344.19,-206.09"/>
</g>
<!-- c17&#45;&gt;n7 -->
<g id="edge28" class="edge">
<title>c17:e&#45;&gt;n7:w</title>
<path fill="none" stroke="black" d="M1163.62,-466.51C1175,-466.51 1180.31,-466.13 1188.18,-465.91"/>
<polygon fill="black" stroke="black" points="1188.16,-469.41 1198.11,-465.78 1188.07,-462.41 1188.16,-469.41"/>
</g>
<!-- c17&#45;&gt;n12 -->
<g id="edge10" class="edge">
<title>c17:e&#45;&gt;n12:w</title>
<path fill="none" stroke="black" stroke-width="3" d="M1163.62,-417.51C1182.28,-417.51 1189.36,-413.71 1203.67,-412.29"/>
<polygon fill="black" stroke="black" stroke-width="3" points="1200.6,-415.94 1210.43,-411.97 1200.28,-408.95 1200.6,-415.94"/>
</g>
<!-- c18&#45;&gt;n3 -->
<g id="edge22" class="edge">
<title>c18:e&#45;&gt;n3:w</title>
<path fill="none" stroke="black" stroke-width="3" d="M1556.39,-531.76C1567.76,-531.76 1573.07,-531.76 1580.94,-531.76"/>
<polygon fill="black" stroke="black" stroke-width="3" points="1577.85,-535.26 1587.85,-531.76 1577.85,-528.26 1577.85,-535.26"/>
</g>
<!-- c19&#45;&gt;n4 -->
<g id="edge23" class="edge">
<title>c19:e&#45;&gt;n4:w</title>
<path fill="none" stroke="black" d="M732.72,-353.51C775.75,-353.51 743.09,-430.92 771.92,-445.43"/>
<polygon fill="black" stroke="black" points="771.01,-448.81 781.51,-447.45 772.45,-441.96 771.01,-448.81"/>
</g>
<!-- c19&#45;&gt;n5 -->
<g id="edge25" class="edge">
<title>c19:e&#45;&gt;n5:w</title>
<path fill="none" stroke="black" d="M732.72,-314.51C756.01,-314.51 764.43,-316.84 783.18,-317.56"/>
<polygon fill="black" stroke="black" points="782.87,-321.05 792.93,-317.73 783,-314.05 782.87,-321.05"/>
</g>
<!-- c19&#45;&gt;n6 -->
<g id="edge27" class="edge">
<title>c19:e&#45;&gt;n6:w</title>
<path fill="none" stroke="black" d="M732.72,-275.01C746.48,-275.01 751.62,-268.68 761.06,-265.52"/>
<polygon fill="black" stroke="black" points="761.58,-268.98 770.93,-263.99 760.51,-262.06 761.58,-268.98"/>
</g>
<!-- c19&#45;&gt;n8 -->
<g id="edge30" class="edge">
<title>c19:e&#45;&gt;n8:w</title>
<path fill="none" stroke="black" d="M732.72,-236.01C761.35,-236.01 744.67,-188.56 760.56,-175.21"/>
<polygon fill="black" stroke="black" points="761.42,-178.61 769.87,-172.22 759.28,-171.95 761.42,-178.61"/>
</g>
<!-- c19&#45;&gt;n9 -->
<g id="edge31" class="edge">
<title>c19:e&#45;&gt;n9:w</title>
<path fill="none" stroke="black" d="M732.72,-197.01C766.72,-197.01 738.88,-135.79 757.9,-120.96"/>
<polygon fill="black" stroke="black" points="758.68,-124.39 767.27,-118.19 756.69,-117.67 758.68,-124.39"/>
</g>
</g>
</svg>
